<svg xmlns="http://www.w3.org/2000/svg" width="64" height="64" viewBox="0 0 64 64" fill="none">
  <circle cx="32" cy="32" r="30" fill="#3B82F6" />
  <circle cx="32" cy="32" r="24" fill="#1E40AF" />
  <path d="M32 8C18.7452 8 8 18.7452 8 32C8 45.2548 18.7452 56 32 56C45.2548 56 56 45.2548 56 32C56 18.7452 45.2548 8 32 8ZM32 52C20.9543 52 12 43.0457 12 32C12 20.9543 20.9543 12 32 12C43.0457 12 52 20.9543 52 32C52 43.0457 43.0457 52 32 52Z" fill="#60A5FA" />
  <path d="M32 20L36 28H44L38 34L40 42L32 38L24 42L26 34L20 28H28L32 20Z" fill="#FBBF24" />
  <text x="32" y="50" text-anchor="middle" font-family="Arial" font-size="10" fill="white">EU</text>
</svg>
